# xmcd
#
# Track frame offsets:
#	150
#	17340
#	34018
#	52730
#	71603
#	88799
#	105594
#	125341
#	144466
#	162484
#	179260
#	193958
#	212254
#	225441
#	244940
#
# Disc length: 3502
#
# Revision: 1
# Processed by: cddbd v1.5.2PL0 Copyright (c) Steve Scherf et al.
# Submitted via: kJams Pro (development) 1.0patch44.15
#
DISCID=c10dac0f
DTITLE=Various Artist - 260 sc8802 Country Hits Vol. 158
DYEAR=1
DGENRE=Country
TTITLE0=Deanna Carter - There's No Limit (Ab)
TTITLE1=Allison Mourer - Up This High (G)
TTITLE2=Blake Sheldon - The Baby (E)
TTITLE3=Nickel Creek - Speak (B)
TTITLE4=Keith Urban - Whenever I Run (C)
TTITLE5=Pinmonkey - I Drove All Night (G)
TTITLE6=Joe Nichols - Brokenheartsville (Bb)
TTITLE7=Faith Hill - When The Lights Go Down (F#)
TTITLE8=Alan Jackson - That'd Be Alright (D)
TTITLE9=Vince Gill - Next Big Thing (D)
TTITLE10=Dolly Parton - Hello God (C)
TTITLE11=Rascal Flatts - I Melt (E)
TTITLE12=Lee Ann Womack - He'll Be Back (C)
TTITLE13=Martina McBride - Concrete Angel (Ab)
TTITLE14=Chris Cagle - What A Beautiful Day (F#)
EXTD=
EXTT0=
EXTT1=
EXTT2=
EXTT3=
EXTT4=
EXTT5=
EXTT6=
EXTT7=
EXTT8=
EXTT9=
EXTT10=
EXTT11=
EXTT12=
EXTT13=
EXTT14=
PLAYORDER=
